<?xml version="1.0" encoding="UTF-8"?>
<svg xmlns="http://www.w3.org/2000/svg" xmlns:xlink="http://www.w3.org/1999/xlink" width="1301pt" height="300pt" viewBox="0 0 1301 300" version="1.1">
<defs>
<clipPath id="clip1">
  <path d="M 1217 181 L 1301 181 L 1301 298.46875 L 1217 298.46875 Z M 1217 181 "/>
</clipPath>
<clipPath id="clip2">
  <path d="M 403.691406 0 L 1301 0 L 1301 181.761719 L 403.691406 181.761719 Z M 403.691406 0 "/>
</clipPath>
</defs>
<g id="surface1">
<path style=" stroke:none;fill-rule:nonzero;fill:rgb(95.294118%,50.588235%,19.215686%);fill-opacity:1;" d="M 88.613281 96.207031 L 204.238281 96.207031 L 204.238281 211.796875 L 88.613281 211.796875 Z M 0 154.011719 C 0 73.144531 65.535156 7.535156 146.445312 7.535156 C 227.339844 7.535156 292.882812 73.144531 292.882812 154.011719 C 292.882812 234.875 227.339844 300.421875 146.445312 300.421875 C 65.535156 300.421875 0 234.875 0 154.011719 M 26.597656 154.011719 C 26.597656 220.175781 80.242188 273.804688 146.445312 273.804688 C 212.636719 273.804688 266.296875 220.175781 266.296875 154.011719 C 266.296875 87.816406 212.636719 34.15625 146.445312 34.15625 C 80.242188 34.15625 26.597656 87.816406 26.597656 154.011719 "/>
<path style=" stroke:none;fill-rule:nonzero;fill:rgb(26.666667%,30.196078%,24.705882%);fill-opacity:1;" d="M 440.328125 258.8125 L 451.515625 256.042969 L 451.515625 275.90625 C 451.089844 277.503906 450.199219 279.066406 449.265625 280.433594 C 448.175781 281.996094 446.742188 283.574219 445.074219 285.152344 C 443.40625 286.609375 441.492188 287.855469 439.335938 288.84375 C 437.285156 289.898438 435.15625 290.40625 433.011719 290.40625 C 429.453125 290.40625 426.53125 289.058594 424.347656 286.390625 C 422.292969 283.664062 421.25 280.375 421.25 276.503906 C 421.25 274.308594 421.90625 272.238281 423.152344 270.277344 C 424.527344 268.359375 426.136719 266.667969 428.070312 265.195312 C 429.992188 263.648438 431.988281 262.296875 434.101562 261.167969 C 436.34375 260.046875 438.421875 259.261719 440.328125 258.8125 M 452.359375 287.265625 L 452.359375 298.042969 L 477.367188 298.042969 L 477.367188 288.402344 L 468.429688 288.402344 L 468.429688 241.0625 C 468.429688 237.402344 467.6875 233.925781 466.171875 230.667969 C 464.765625 227.3125 462.757812 224.359375 460.148438 221.878906 C 457.667969 219.414062 454.640625 217.425781 451.050781 216.019531 C 447.554688 214.605469 443.730469 213.925781 439.46875 213.925781 C 435.433594 213.925781 431.679688 214.292969 428.3125 215.070312 C 425.039062 215.71875 422.0625 216.492188 419.402344 217.363281 C 416.90625 218.238281 414.8125 219.171875 413.191406 220.152344 L 409.820312 221.984375 L 409.820312 236.953125 L 424.222656 236.953125 L 424.222656 227.804688 C 425.292969 226.75 427.4375 225.789062 428.675781 225.257812 C 430.917969 224.121094 433.355469 223.546875 435.984375 223.546875 C 441.066406 223.546875 444.992188 225.398438 447.636719 229.203125 C 450.238281 232.949219 451.515625 237.34375 451.515625 242.402344 L 451.515625 247.761719 L 436.753906 251.160156 C 433.46875 251.929688 429.835938 253.113281 425.890625 254.761719 C 422.085938 256.296875 418.503906 258.214844 415.238281 260.519531 C 411.972656 262.699219 409.238281 265.257812 407.070312 268.1875 C 404.925781 270.972656 403.855469 273.992188 403.855469 277.167969 C 403.855469 283.769531 406.078125 289.230469 410.484375 293.523438 C 415.023438 297.847656 421.34375 300.023438 429.519531 300.023438 C 434.859375 300.023438 439.863281 297.730469 444.117188 294.671875 C 446.097656 293.238281 447.734375 291.816406 449.042969 290.421875 C 450.363281 288.867188 451.136719 287.773438 451.441406 287.066406 L 452.359375 287.265625 "/>
<path style=" stroke:none;fill-rule:nonzero;fill:rgb(26.666667%,30.196078%,24.705882%);fill-opacity:1;" d="M 489.625 288.402344 L 489.625 298.042969 L 525.226562 298.042969 L 525.226562 288.402344 L 516.28125 288.402344 L 516.28125 181.625 L 489.625 181.625 L 489.625 191.25 L 498.546875 191.25 L 498.546875 288.402344 "/>
<path style=" stroke:none;fill-rule:nonzero;fill:rgb(26.666667%,30.196078%,24.705882%);fill-opacity:1;" d="M 628.664062 288.402344 L 628.664062 298.042969 L 663.289062 298.042969 L 663.289062 288.402344 L 654.355469 288.402344 L 654.355469 241.910156 C 654.355469 238.992188 653.863281 235.871094 652.867188 232.605469 C 651.996094 229.253906 650.484375 226.214844 648.308594 223.507812 C 646.277344 220.691406 643.488281 218.410156 640.023438 216.683594 C 636.695312 214.859375 632.539062 213.925781 627.503906 213.925781 C 624.835938 213.925781 622.332031 214.472656 620.074219 215.527344 C 617.8125 216.511719 615.808594 217.777344 614.074219 219.253906 C 612.332031 220.683594 610.875 222.164062 609.6875 223.671875 C 608.582031 225.09375 607.894531 226.152344 607.578125 226.855469 L 606.683594 226.664062 L 606.683594 181.625 L 579.980469 181.625 L 579.980469 191.25 L 588.925781 191.25 L 588.925781 288.402344 L 579.980469 288.402344 L 579.980469 298.042969 L 614.621094 298.042969 L 614.621094 288.402344 L 606.683594 288.402344 L 606.683594 238.890625 C 606.785156 238.015625 607.398438 236.746094 608.386719 235.191406 C 609.410156 233.515625 610.628906 231.894531 612.101562 230.300781 C 613.675781 228.738281 615.410156 227.417969 617.300781 226.265625 C 619.28125 225.003906 621.339844 224.359375 623.519531 224.359375 C 625.828125 224.359375 627.789062 224.890625 629.410156 225.929688 C 631.121094 226.96875 632.503906 228.269531 633.558594 229.882812 C 634.558594 231.386719 635.3125 233.074219 635.761719 234.996094 C 636.308594 236.804688 636.589844 238.546875 636.589844 240.265625 L 636.589844 288.402344 L 628.664062 288.402344 "/>
<path style=" stroke:none;fill-rule:nonzero;fill:rgb(26.666667%,30.196078%,24.705882%);fill-opacity:1;" d="M 675.492188 288.402344 L 675.492188 298.042969 L 711.132812 298.042969 L 711.132812 288.402344 L 702.195312 288.402344 L 702.195312 215.90625 L 675.492188 215.90625 L 675.492188 225.535156 L 684.445312 225.535156 L 684.445312 288.402344 Z M 701.1875 200.660156 C 703.515625 198.546875 704.667969 195.960938 704.667969 192.910156 C 704.667969 189.855469 703.515625 187.269531 701.1875 185.152344 C 698.953125 183 696.304688 181.976562 693.210938 181.976562 C 687.113281 181.976562 681.964844 186.664062 681.964844 192.910156 C 681.964844 199.136719 687.113281 203.835938 693.210938 203.835938 C 696.304688 203.835938 698.953125 202.792969 701.1875 200.660156 "/>
<path style=" stroke:none;fill-rule:nonzero;fill:rgb(26.666667%,30.196078%,24.705882%);fill-opacity:1;" d="M 723.34375 288.402344 L 723.34375 298.042969 L 758.964844 298.042969 L 758.964844 288.402344 L 750.019531 288.402344 L 750.019531 181.625 L 723.34375 181.625 L 723.34375 191.25 L 732.289062 191.25 L 732.289062 288.402344 "/>
<path style=" stroke:none;fill-rule:nonzero;fill:rgb(26.666667%,30.196078%,24.705882%);fill-opacity:1;" d="M 806.855469 258.8125 L 818.050781 256.042969 L 818.050781 275.90625 C 817.617188 277.503906 816.71875 279.066406 815.816406 280.433594 C 814.6875 281.996094 813.257812 283.574219 811.601562 285.152344 C 809.910156 286.609375 807.984375 287.855469 805.847656 288.84375 C 803.804688 289.898438 801.691406 290.40625 799.507812 290.40625 C 795.949219 290.40625 793.042969 289.058594 790.859375 286.390625 C 788.804688 283.664062 787.765625 280.375 787.765625 276.503906 C 787.765625 274.308594 788.402344 272.238281 789.664062 270.277344 C 791.03125 268.359375 792.65625 266.667969 794.574219 265.195312 C 796.480469 263.648438 798.492188 262.296875 800.613281 261.167969 C 802.832031 260.046875 804.925781 259.261719 806.855469 258.8125 M 818.871094 287.265625 L 818.871094 298.042969 L 843.886719 298.042969 L 843.886719 288.402344 L 834.949219 288.402344 L 834.949219 241.0625 C 834.949219 237.402344 834.199219 233.925781 832.667969 230.667969 C 831.269531 227.3125 829.253906 224.359375 826.667969 221.878906 C 824.140625 219.414062 821.113281 217.425781 817.535156 216.019531 C 814.097656 214.605469 810.210938 213.925781 805.980469 213.925781 C 801.921875 213.925781 798.207031 214.292969 794.808594 215.070312 C 791.511719 215.71875 788.566406 216.492188 785.9375 217.363281 C 783.394531 218.238281 781.347656 219.171875 779.746094 220.152344 L 776.324219 221.984375 L 776.324219 236.953125 L 790.742188 236.953125 L 790.742188 227.804688 C 791.78125 226.75 793.957031 225.789062 795.171875 225.257812 C 797.460938 224.121094 799.898438 223.546875 802.503906 223.546875 C 807.59375 223.546875 811.496094 225.398438 814.148438 229.203125 C 816.734375 232.949219 818.050781 237.34375 818.050781 242.402344 L 818.050781 247.761719 L 803.253906 251.160156 C 799.957031 251.929688 796.347656 253.113281 792.402344 254.761719 C 788.597656 256.296875 785.015625 258.214844 781.75 260.519531 C 778.457031 262.699219 775.75 265.257812 773.574219 268.1875 C 771.4375 270.972656 770.359375 273.992188 770.359375 277.167969 C 770.359375 283.769531 772.597656 289.230469 776.992188 293.523438 C 781.519531 297.847656 787.847656 300.023438 796.03125 300.023438 C 801.382812 300.023438 806.40625 297.730469 810.671875 294.671875 C 812.632812 293.238281 814.214844 291.816406 815.539062 290.421875 C 816.863281 288.867188 817.667969 287.773438 817.960938 287.066406 L 818.871094 287.265625 "/>
<path style=" stroke:none;fill-rule:nonzero;fill:rgb(26.666667%,30.196078%,24.705882%);fill-opacity:1;" d="M 856.105469 288.402344 L 856.105469 298.042969 L 891.738281 298.042969 L 891.738281 288.402344 L 882.777344 288.402344 L 882.777344 181.625 L 856.105469 181.625 L 856.105469 191.25 L 865.042969 191.25 L 865.042969 288.402344 "/>
<path style=" stroke:none;fill-rule:nonzero;fill:rgb(26.666667%,30.196078%,24.705882%);fill-opacity:1;" d="M 1004.433594 244.300781 C 1005.203125 247.863281 1005.613281 251.363281 1005.613281 254.816406 C 1005.613281 258.605469 1005.171875 262.589844 1004.253906 266.824219 C 1002.835938 274.292969 999.828125 281.871094 994.023438 286.960938 C 991.378906 289.253906 988.199219 290.40625 984.589844 290.40625 C 982.304688 290.40625 979.957031 290.105469 977.746094 289.898438 C 976.648438 289.679688 975.554688 289.484375 974.578125 289.382812 C 973.71875 289.195312 972.953125 288.957031 972.171875 288.574219 L 972.171875 238.890625 C 972.582031 236.574219 975.621094 232.386719 977.09375 230.660156 C 979.808594 227.558594 983.546875 224.359375 987.878906 224.359375 C 990.675781 224.359375 993.164062 225.363281 995.339844 227.296875 C 997.582031 229.128906 999.457031 231.484375 1000.914062 234.398438 C 1002.476562 237.320312 1003.664062 240.601562 1004.433594 244.300781 M 1021.242188 272.378906 C 1022.992188 266.824219 1023.8125 260.953125 1023.8125 254.816406 C 1023.8125 245.621094 1021.324219 235.675781 1016.285156 227.902344 C 1013.804688 223.917969 1010.472656 220.578125 1006.339844 217.957031 C 1002.257812 215.289062 997.257812 213.925781 991.378906 213.925781 C 989.15625 213.925781 986.9375 214.496094 984.824219 215.675781 C 982.648438 216.773438 980.726562 218.058594 979.105469 219.5625 C 977.476562 220.988281 976.136719 222.46875 975.019531 224 C 973.917969 225.398438 973.296875 226.378906 973.125 226.855469 L 972.171875 226.664062 L 972.171875 181.625 L 945.496094 181.625 L 945.496094 191.25 L 954.449219 191.25 L 954.449219 295.667969 C 956.339844 296.191406 958.492188 296.691406 961.003906 297.222656 L 969.457031 298.542969 C 972.289062 298.984375 975.054688 299.3125 977.691406 299.515625 C 980.308594 299.859375 982.648438 300.023438 984.589844 300.023438 C 990.800781 300.023438 996.332031 298.84375 1001.101562 296.445312 C 1006.003906 294.046875 1010.136719 290.808594 1013.527344 286.78125 C 1016.929688 282.65625 1019.464844 277.828125 1021.242188 272.378906 "/>
<path style=" stroke:none;fill-rule:nonzero;fill:rgb(26.666667%,30.196078%,24.705882%);fill-opacity:1;" d="M 1073.019531 258.8125 L 1084.25 256.042969 L 1084.25 275.90625 C 1083.804688 277.503906 1082.90625 279.066406 1081.988281 280.433594 C 1080.875 281.996094 1079.46875 283.574219 1077.777344 285.152344 C 1076.089844 286.609375 1074.175781 287.855469 1072.039062 288.84375 C 1069.984375 289.898438 1067.871094 290.40625 1065.695312 290.40625 C 1062.136719 290.40625 1059.246094 289.058594 1057.023438 286.390625 C 1054.992188 283.664062 1053.953125 280.375 1053.953125 276.503906 C 1053.953125 274.308594 1054.574219 272.238281 1055.859375 270.277344 C 1057.210938 268.359375 1058.847656 266.667969 1060.769531 265.195312 C 1062.660156 263.648438 1064.679688 262.296875 1066.792969 261.167969 C 1069.003906 260.046875 1071.128906 259.261719 1073.019531 258.8125 M 1085.058594 287.265625 L 1085.058594 298.042969 L 1110.058594 298.042969 L 1110.058594 288.402344 L 1101.125 288.402344 L 1101.125 241.0625 C 1101.125 237.402344 1100.378906 233.925781 1098.855469 230.667969 C 1097.457031 227.3125 1095.4375 224.359375 1092.832031 221.878906 C 1090.363281 219.414062 1087.300781 217.425781 1083.734375 216.019531 C 1080.238281 214.605469 1076.410156 213.925781 1072.179688 213.925781 C 1068.09375 213.925781 1064.371094 214.292969 1061.007812 215.070312 C 1057.699219 215.71875 1054.746094 216.492188 1052.101562 217.363281 C 1049.582031 218.238281 1047.527344 219.171875 1045.917969 220.152344 L 1042.519531 221.984375 L 1042.519531 236.953125 L 1056.949219 236.953125 L 1056.949219 227.804688 C 1057.972656 226.75 1060.15625 225.789062 1061.335938 225.257812 C 1063.617188 224.121094 1066.0625 223.546875 1068.683594 223.546875 C 1073.789062 223.546875 1077.695312 225.398438 1080.363281 229.203125 C 1082.945312 232.949219 1084.25 237.34375 1084.25 242.402344 L 1084.25 247.761719 L 1069.453125 251.160156 C 1066.144531 251.929688 1062.539062 253.113281 1058.59375 254.761719 C 1054.769531 256.296875 1051.25 258.214844 1047.929688 260.519531 C 1044.640625 262.699219 1041.9375 265.257812 1039.753906 268.1875 C 1037.632812 270.972656 1036.539062 273.992188 1036.539062 277.167969 C 1036.539062 283.769531 1038.773438 289.230469 1043.191406 293.523438 C 1047.707031 297.847656 1054.035156 300.023438 1062.21875 300.023438 C 1067.554688 300.023438 1072.585938 297.730469 1076.84375 294.671875 C 1078.816406 293.238281 1080.425781 291.816406 1081.710938 290.421875 C 1083.039062 288.867188 1083.816406 287.773438 1084.125 287.066406 L 1085.058594 287.265625 "/>
<path style=" stroke:none;fill-rule:nonzero;fill:rgb(26.666667%,30.196078%,24.705882%);fill-opacity:1;" d="M 1148.988281 238.8125 C 1149.257812 237.753906 1149.832031 236.40625 1150.707031 234.882812 C 1151.730469 233.292969 1152.972656 231.707031 1154.429688 230.175781 C 1157.46875 227.109375 1161.378906 224.359375 1165.863281 224.359375 C 1168.148438 224.359375 1170.078125 224.890625 1171.730469 225.929688 C 1173.476562 226.855469 1174.824219 228.105469 1175.878906 229.726562 C 1176.886719 231.222656 1177.609375 232.894531 1178.074219 234.824219 C 1178.65625 236.640625 1178.925781 238.433594 1178.925781 240.25 L 1178.925781 288.402344 L 1170.976562 288.402344 L 1170.976562 298.042969 L 1205.59375 298.042969 L 1205.59375 288.402344 L 1196.652344 288.402344 L 1196.652344 242.402344 C 1196.652344 239.136719 1196.183594 235.824219 1195.183594 232.433594 C 1193.171875 225.242188 1188.746094 219.867188 1182.019531 216.511719 C 1178.695312 214.800781 1174.613281 213.925781 1169.832031 213.925781 C 1164.585938 213.925781 1159.832031 216.125 1155.734375 219.277344 C 1153.972656 220.691406 1152.539062 222.164062 1151.339844 223.671875 C 1150.125 225.085938 1149.390625 226.152344 1149.085938 226.855469 L 1148.164062 226.664062 L 1148.164062 215.90625 L 1122.308594 215.90625 L 1122.308594 225.535156 L 1131.246094 225.535156 L 1131.246094 288.402344 L 1122.308594 288.402344 L 1122.308594 298.042969 L 1156.945312 298.042969 L 1156.945312 288.402344 L 1148.988281 288.402344 L 1148.988281 238.8125 "/>
<g clip-path="url(#clip1)" clip-rule="nonzero">
<path style=" stroke:none;fill-rule:nonzero;fill:rgb(26.666667%,30.196078%,24.705882%);fill-opacity:1;" d="M 1217.828125 288.402344 L 1217.828125 298.042969 L 1251.308594 298.042969 L 1251.308594 288.402344 L 1244.5 288.402344 L 1244.5 181.625 L 1217.828125 181.625 L 1217.828125 191.25 L 1226.789062 191.25 L 1226.789062 288.402344 Z M 1263.011719 288.402344 L 1263.011719 298.042969 L 1301.605469 298.042969 L 1301.605469 288.402344 L 1292.957031 288.402344 L 1262.21875 249.996094 L 1286.664062 225.535156 L 1295.679688 225.535156 L 1295.679688 215.90625 L 1263.667969 215.90625 L 1263.667969 225.535156 L 1273.078125 225.535156 L 1245.777344 254.523438 L 1270.941406 288.402344 "/>
</g>
<g clip-path="url(#clip2)" clip-rule="nonzero">
<path style=" stroke:none;fill-rule:nonzero;fill:rgb(26.666667%,30.196078%,24.705882%);fill-opacity:1;" d="M 649.175781 67.425781 L 640.253906 67.425781 L 640.253906 57.785156 L 666.925781 57.785156 L 666.925781 80.027344 C 673.765625 80.886719 680.617188 82.988281 685.34375 85.738281 C 690.140625 88.445312 694.191406 91.882812 697.433594 96.03125 C 700.714844 100.058594 703.277344 104.476562 704.976562 109.316406 C 706.597656 114.035156 707.433594 118.359375 707.433594 122.398438 C 707.433594 125.328125 706.949219 127.859375 706.132812 130.3125 L 740.144531 130.3125 L 740.144531 33.167969 L 731.207031 33.167969 L 731.207031 23.535156 L 757.910156 23.535156 L 757.910156 130.3125 L 766.832031 130.3125 L 766.832031 139.945312 L 501.492188 139.945312 L 501.492188 130.3125 L 558.230469 130.3125 L 558.230469 33.167969 L 549.316406 33.167969 L 549.316406 23.535156 L 575.988281 23.535156 L 575.988281 130.3125 L 610.007812 130.3125 C 609.179688 127.859375 608.699219 125.328125 608.699219 122.398438 C 608.699219 118.359375 609.539062 114.035156 611.144531 109.316406 C 612.855469 104.476562 615.417969 100.058594 618.691406 96.03125 C 621.988281 91.882812 626.015625 88.445312 630.800781 85.738281 C 635.492188 83.011719 642.375 80.902344 649.175781 80.027344 Z M 666.925781 90.214844 L 666.925781 130.3125 L 687.597656 130.3125 C 690.207031 125.386719 689.945312 117.875 686.984375 109.273438 C 683.121094 98.0625 675.3125 91.171875 666.925781 90.214844 M 649.175781 130.3125 L 649.175781 90.214844 C 640.785156 91.1875 633.042969 98.085938 629.140625 109.273438 C 626.1875 117.875 625.933594 125.386719 628.558594 130.3125 Z M 421.03125 135.804688 C 421.03125 154.90625 430.375 171.363281 441.941406 171.363281 C 453.527344 171.363281 462.898438 159.339844 462.898438 136.269531 L 462.839844 33.167969 L 453.90625 33.167969 L 453.90625 23.535156 L 480.402344 23.535156 L 480.402344 136.84375 C 480.402344 167.441406 463.265625 181.625 442.128906 181.625 C 420.988281 181.625 403.835938 161.109375 403.835938 135.804688 Z M 501.492188 110.910156 L 510.421875 110.910156 L 510.421875 33.167969 L 501.492188 33.167969 L 501.492188 23.535156 L 528.148438 23.535156 L 528.148438 110.910156 L 537.132812 110.910156 L 537.132812 120.542969 L 501.492188 120.542969 Z M 779.03125 130.3125 L 787.992188 130.3125 L 787.992188 33.167969 L 779.03125 33.167969 L 779.03125 23.535156 L 805.695312 23.535156 L 805.695312 130.3125 L 814.648438 130.3125 L 814.648438 139.945312 L 779.03125 139.945312 Z M 1193.613281 104.921875 C 1193.613281 114.929688 1189.390625 123.9375 1182.714844 130.3125 L 1238.746094 130.3125 C 1232.480469 123.964844 1228.507812 115.863281 1226.675781 106.957031 C 1225.589844 101.328125 1225.089844 96.277344 1225.089844 91.6875 C 1225.089844 87.382812 1225.800781 82.667969 1227.355469 77.546875 C 1228.976562 72.390625 1231.359375 67.6875 1234.53125 63.375 C 1237.773438 58.945312 1241.792969 55.28125 1246.546875 52.367188 C 1251.292969 49.460938 1256.847656 48.039062 1263.265625 48.039062 C 1269.664062 48.039062 1275.238281 49.421875 1279.976562 52.210938 C 1284.84375 54.871094 1288.871094 58.371094 1291.988281 62.675781 C 1295.253906 66.859375 1297.644531 71.574219 1299.160156 76.820312 C 1300.8125 81.992188 1301.605469 86.925781 1301.605469 91.6875 C 1301.605469 95.886719 1301.023438 100.8125 1299.878906 106.449219 C 1298.71875 111.894531 1296.621094 117.148438 1293.570312 122.179688 C 1290.664062 127.15625 1286.726562 131.410156 1281.734375 134.90625 C 1276.867188 138.25 1270.722656 139.945312 1263.265625 139.945312 L 1041.261719 139.945312 L 1041.261719 154.644531 C 1041.261719 157.800781 1040.835938 160.96875 1040.074219 164.121094 C 1039.328125 167.386719 1038.027344 170.324219 1036.175781 172.902344 C 1031.882812 179.339844 1025.679688 181.625 1018.09375 181.625 C 1014.285156 181.625 1012.0625 181.199219 1009.566406 180.316406 C 1007.511719 179.691406 1006.019531 179.085938 1005.121094 178.644531 L 1010.703125 169.292969 C 1011.203125 169.71875 1011.9375 170.207031 1012.820312 170.796875 C 1014.222656 171.589844 1015.726562 172.007812 1017.378906 172.007812 C 1019.507812 172.007812 1021.078125 170.65625 1022.117188 168.234375 C 1023.132812 165.976562 1023.65625 163.417969 1023.65625 160.585938 L 1023.65625 67.425781 L 1013.714844 67.425781 L 1013.714844 57.785156 L 1041.261719 57.785156 L 1041.261719 130.3125 L 1077.824219 130.3125 L 1077.824219 67.425781 L 1068.855469 67.425781 L 1068.855469 57.785156 L 1095.523438 57.785156 L 1095.523438 69.886719 L 1158.539062 69.847656 C 1177.894531 69.847656 1193.613281 85.550781 1193.613281 104.921875 M 1095.523438 130.3125 L 1148.75 130.3125 C 1162.46875 130.3125 1173.574219 118.316406 1173.574219 105.328125 C 1173.574219 92.261719 1162.433594 81.820312 1148.75 81.820312 L 1095.523438 81.820312 Z M 1281.382812 81.394531 C 1280.917969 77.578125 1279.976562 74.003906 1278.535156 70.679688 C 1277.070312 67.203125 1275.132812 64.3125 1272.59375 62.039062 C 1270.15625 59.574219 1267.03125 58.371094 1263.265625 58.371094 C 1259.613281 58.371094 1256.5625 59.535156 1254.101562 61.84375 C 1248.917969 66.792969 1246.390625 74.117188 1245.292969 81.015625 C 1244.722656 84.820312 1244.417969 88.324219 1244.417969 91.515625 C 1244.417969 94.929688 1244.648438 98.839844 1245.128906 103.234375 C 1245.703125 107.605469 1246.660156 111.769531 1247.960938 115.683594 C 1249.402344 119.511719 1251.316406 122.808594 1253.707031 125.558594 C 1256.171875 128.277344 1259.355469 129.585938 1263.265625 129.585938 C 1267.136719 129.585938 1270.34375 128.339844 1272.757812 125.753906 C 1275.296875 123.210938 1277.226562 120.035156 1278.535156 116.230469 C 1279.976562 112.40625 1280.917969 108.316406 1281.382812 103.945312 C 1281.972656 99.453125 1282.277344 95.3125 1282.277344 91.515625 C 1282.277344 88.539062 1281.972656 85.175781 1281.382812 81.394531 M 973.03125 107.777344 L 972.101562 107.605469 C 971.789062 108.421875 971.054688 109.578125 969.851562 111.125 C 967.289062 114.480469 963.925781 117.210938 960.109375 118.921875 C 958.050781 120.003906 955.914062 120.542969 953.679688 120.542969 C 948 120.542969 943.179688 119.125 939.0625 116.3125 C 935.027344 113.488281 931.707031 109.90625 929.09375 105.550781 C 926.476562 101.179688 924.527344 96.3125 923.203125 90.949219 C 921.984375 85.574219 921.386719 80.363281 921.386719 75.34375 C 921.386719 71.320312 922.1875 66.949219 923.847656 62.25 C 925.601562 57.457031 928.082031 53.027344 931.371094 48.976562 C 934.636719 44.835938 938.6875 41.417969 943.488281 38.675781 C 948.367188 35.851562 953.917969 34.4375 960.152344 34.4375 C 962.445312 34.4375 965.167969 34.648438 968.351562 35.082031 C 971.542969 35.425781 974.695312 35.851562 977.796875 36.40625 C 980.839844 36.84375 983.582031 37.355469 986.035156 37.90625 L 990.609375 38.96875 L 990.609375 139.945312 L 865.804688 139.945312 L 865.804688 130.3125 L 874.765625 130.3125 L 874.765625 67.425781 L 865.804688 67.425781 L 865.804688 57.785156 L 892.5 57.785156 L 892.5 130.3125 L 973.03125 130.3125 Z M 973.03125 95.460938 L 973.03125 45.984375 C 972.171875 45.777344 971.355469 45.671875 970.480469 45.550781 L 967.027344 44.894531 C 965.78125 44.683594 964.5625 44.503906 963.351562 44.410156 C 962.101562 44.175781 961.042969 44.058594 960.152344 44.058594 C 956.8125 44.058594 953.824219 45.207031 951.191406 47.496094 C 948.734375 49.738281 946.601562 52.496094 944.816406 55.714844 C 943.164062 58.863281 941.820312 62.203125 940.804688 65.761719 C 939.90625 69.320312 939.464844 72.511719 939.464844 75.34375 C 939.464844 78.453125 939.800781 82.015625 940.460938 86 C 941.664062 92.957031 944.339844 100.871094 949.039062 106.304688 C 951.3125 108.785156 954.023438 110.085938 957.15625 110.085938 C 959.039062 110.085938 960.839844 109.496094 962.550781 108.359375 C 964.335938 107.261719 965.988281 105.941406 967.453125 104.476562 C 969.40625 102.359375 972.378906 98.339844 973.03125 95.460938 M 961.183594 0.0078125 C 967.46875 0.0078125 972.527344 4.949219 972.527344 11 C 972.527344 17.039062 967.46875 21.957031 961.183594 21.957031 C 954.882812 21.957031 949.832031 17.039062 949.832031 11 C 949.832031 4.949219 954.882812 0.0078125 961.183594 0.0078125 "/>
</g>
</g>
</svg>
