<?xml version="1.0" encoding="UTF-8" standalone="no"?>
<!-- Created with Inkscape (http://www.inkscape.org/) -->

<svg
   xmlns:dc="http://purl.org/dc/elements/1.1/"
   xmlns:cc="http://creativecommons.org/ns#"
   xmlns:rdf="http://www.w3.org/1999/02/22-rdf-syntax-ns#"
   xmlns:svg="http://www.w3.org/2000/svg"
   xmlns="http://www.w3.org/2000/svg"
   xmlns:sodipodi="http://sodipodi.sourceforge.net/DTD/sodipodi-0.dtd"
   xmlns:inkscape="http://www.inkscape.org/namespaces/inkscape"
   width="1000"
   height="629.09564"
   id="svg3589"
   version="1.1"
   inkscape:version="0.48.2 r9819"
   sodipodi:docname="AAA.svg">
  <defs
     id="defs3591">
    <clipPath
       id="clipPath3203"
       clipPathUnits="userSpaceOnUse">
      <path
         inkscape:connector-curvature="0"
         id="path3205"
         d="m 252.482,103.149 -204.577,0 0,-24.278 204.577,0 0,24.278 z" />
    </clipPath>
    <clipPath
       id="clipPath3726"
       clipPathUnits="userSpaceOnUse">
      <path
         id="path3728"
         d="m 0,0 595.276,0 0,841.89 L 0,841.89 0,0 z"
         inkscape:connector-curvature="0" />
    </clipPath>
    <clipPath
       id="clipPath3690"
       clipPathUnits="userSpaceOnUse">
      <path
         id="path3692"
         d="m 0,841.89 595.276,0 L 595.276,0 0,0 0,841.89 z"
         inkscape:connector-curvature="0" />
    </clipPath>
  </defs>
  <sodipodi:namedview
     id="base"
     pagecolor="#ffffff"
     bordercolor="#666666"
     borderopacity="1.0"
     inkscape:pageopacity="0.0"
     inkscape:pageshadow="2"
     inkscape:zoom="0.7"
     inkscape:cx="660.24218"
     inkscape:cy="138.7634"
     inkscape:document-units="px"
     inkscape:current-layer="g3678"
     showgrid="false"
     fit-margin-left="0.5"
     fit-margin-bottom="0.5"
     fit-margin-top="0.5"
     fit-margin-right="0.5"
     inkscape:window-width="1920"
     inkscape:window-height="1028"
     inkscape:window-x="-8"
     inkscape:window-y="-8"
     inkscape:window-maximized="1" />
  <metadata
     id="metadata3594">
    <rdf:RDF>
      <cc:Work
         rdf:about="">
        <dc:format>image/svg+xml</dc:format>
        <dc:type
           rdf:resource="http://purl.org/dc/dcmitype/StillImage" />
        <dc:title></dc:title>
      </cc:Work>
    </rdf:RDF>
  </metadata>
  <g
     inkscape:label="Layer 1"
     inkscape:groupmode="layer"
     id="layer1"
     transform="translate(-242.25549,559.45652)">
    <g
       transform="matrix(1.25,0,0,-1.25,180.03474,980.32077)"
       inkscape:label="Noor-Bank-Corporate-Price-Guide"
       id="g3678">
      <g
         transform="matrix(7.9828118,0,0,7.9828118,50.1766,1225.6446)"
         id="g3718">
        <path
           id="path3720"
           style="fill:#4b4f54;fill-opacity:1;fill-rule:nonzero;stroke:none"
           d="m 0,0 5.286,0 11.593,-18.456 0,18.456 5.719,0 0,-28.159 -5.245,0 -11.634,18.299 0,-18.299 -5.719,0 L 0,0 z"
           inkscape:connector-curvature="0" />
      </g>
      <g
         id="g3722"
         transform="matrix(7.9828118,0,0,7.9828118,-350.37375,-5090.0878)">
        <g
           clip-path="url(#clipPath3726)"
           id="g3724">
          <g
             transform="translate(126.5921,791.1664)"
             id="g3730">
            <path
               id="path3732"
               style="fill:#4b4f54;fill-opacity:1;fill-rule:nonzero;stroke:none"
               d="m 0,0 9.977,0 c 2.207,0 4.028,-0.256 5.461,-0.77 1.433,-0.511 2.558,-1.183 3.372,-2.009 0.816,-0.828 1.379,-1.749 1.698,-2.761 0.314,-1.014 0.472,-2.007 0.472,-2.979 0,-1.814 -0.328,-3.339 -0.984,-4.574 -0.66,-1.237 -1.763,-2.277 -3.314,-3.117 l 5.717,-11.949 -6.349,0 -4.731,10.568 -5.523,0 0,-10.568 -5.796,0 L 0,0 z m 10.373,-12.7 c 0.918,0 1.681,0.1 2.286,0.298 0.602,0.195 1.083,0.472 1.439,0.828 0.354,0.353 0.598,0.781 0.728,1.281 0.133,0.5 0.2,1.051 0.2,1.655 0,0.501 -0.079,0.98 -0.237,1.44 -0.158,0.458 -0.428,0.868 -0.809,1.223 -0.382,0.354 -0.907,0.631 -1.577,0.828 -0.67,0.198 -1.521,0.296 -2.547,0.296 l -4.137,0 0,-7.849 4.654,0 z"
               inkscape:connector-curvature="0" />
          </g>
          <g
             transform="translate(122.7919,783.1941)"
             id="g3734">
            <path
               id="path3736"
               style="fill:#4b4f54;fill-opacity:1;fill-rule:nonzero;stroke:none"
               d="m 0,0 c -0.622,1.828 -1.516,3.388 -2.681,4.686 -1.163,1.296 -2.581,2.291 -4.249,2.977 -1.666,0.688 -3.559,1.033 -5.677,1.033 -2.142,0 -4.049,-0.345 -5.717,-1.033 -1.049,-0.433 -1.996,-0.984 -2.842,-1.658 l 0.335,-0.768 2.174,-4.9 c 0.105,0.123 1.5,2.637 6.089,2.637 2.592,0 4.686,-0.925 5.713,-2.253 1.363,-1.763 2.023,-3.763 2.034,-6.914 0.011,-3.258 -0.873,-5.582 -2.276,-7.142 -1.092,-1.214 -2.982,-2.028 -5.471,-2.028 -2.096,0 -4.666,0.637 -5.96,2.509 -0.925,1.34 -1.735,3.286 -1.729,6.549 l 0,0.272 -0.007,0 c 0,0.089 0,0.175 -0.002,0.266 -0.035,2.132 -0.218,4.055 -0.788,5.769 -0.609,1.826 -1.488,3.389 -2.639,4.684 -1.154,1.296 -2.561,2.291 -4.231,2.979 -1.667,0.689 -3.56,1.031 -5.677,1.031 -2.091,0 -3.969,-0.342 -5.636,-1.031 -1.67,-0.688 -3.093,-1.683 -4.27,-2.979 -1.177,-1.295 -2.079,-2.858 -2.7,-4.684 -0.624,-1.827 -0.933,-3.893 -0.933,-6.195 0,-2.302 0.309,-4.368 0.933,-6.193 0.621,-1.828 1.516,-3.389 2.681,-4.687 1.163,-1.295 2.58,-2.29 4.248,-2.976 1.666,-0.689 3.559,-1.033 5.677,-1.033 2.142,0 4.049,0.344 5.717,1.033 1.049,0.432 1.997,0.983 2.842,1.658 l -0.335,0.767 -2.173,4.9 c -0.106,-0.123 -1.501,-2.639 -6.09,-2.639 -2.593,0 -4.686,0.928 -5.713,2.256 -1.363,1.763 -2.023,3.763 -2.033,6.914 -0.012,3.258 0.872,5.581 2.276,7.142 1.091,1.214 2.981,2.028 5.47,2.028 2.096,0 4.666,-0.638 5.96,-2.512 0.925,-1.337 1.686,-3.286 1.68,-6.546 l 0.006,0 0,-0.3 0.002,0 c 0,-0.079 0,-0.158 0.002,-0.238 0.035,-2.132 0.266,-4.056 0.835,-5.77 0.61,-1.825 1.489,-3.388 2.64,-4.684 1.154,-1.295 2.561,-2.29 4.231,-2.979 1.667,-0.688 3.56,-1.03 5.677,-1.03 2.092,0 3.969,0.342 5.637,1.03 1.67,0.689 3.093,1.684 4.27,2.979 1.177,1.296 2.078,2.859 2.7,4.684 0.623,1.828 0.933,3.894 0.933,6.196 C 0.933,-3.891 0.623,-1.825 0,0"
               inkscape:connector-curvature="0" />
          </g>
          <g
             transform="translate(50.1766,757.0903)"
             id="g3738">
            <path
               id="path3740"
               style="fill:#1725aa;fill-opacity:1;fill-rule:nonzero;stroke:none"
               d="m 0,0 10.131,0 c 2.076,0 3.79,-0.198 5.144,-0.591 1.353,-0.395 2.424,-0.935 3.213,-1.618 0.788,-0.683 1.333,-1.484 1.635,-2.404 0.302,-0.921 0.454,-1.918 0.454,-2.995 0,-1.104 -0.237,-2.141 -0.709,-3.113 -0.473,-0.976 -1.368,-1.8 -2.681,-2.484 0.841,-0.447 1.53,-0.915 2.069,-1.4 0.539,-0.487 0.96,-1.005 1.261,-1.557 0.302,-0.553 0.513,-1.118 0.631,-1.695 0.119,-0.579 0.178,-1.158 0.178,-1.735 0,-1.181 -0.178,-2.3 -0.533,-3.351 -0.354,-1.051 -0.946,-1.958 -1.773,-2.721 -0.828,-0.76 -1.912,-1.365 -3.253,-1.812 -1.339,-0.446 -2.995,-0.669 -4.967,-0.669 L 0,-28.145 0,0 z m 10.8,-11.157 c 1.551,0 2.615,0.291 3.194,0.868 0.578,0.578 0.867,1.406 0.867,2.484 0,1.155 -0.374,1.977 -1.123,2.462 -0.749,0.487 -2.017,0.73 -3.804,0.73 l -4.215,0 0,-6.544 5.081,0 z m -0.196,-12.377 c 0.972,0 1.779,0.091 2.424,0.277 0.644,0.182 1.163,0.451 1.557,0.807 0.394,0.354 0.67,0.77 0.828,1.242 0.157,0.472 0.236,1.012 0.236,1.616 0,1.207 -0.329,2.128 -0.984,2.76 -0.658,0.631 -1.814,0.944 -3.47,0.944 l -5.476,0 0,-7.646 4.885,0 z"
               inkscape:connector-curvature="0" />
          </g>
        </g>
      </g>
      <g
         transform="matrix(7.9828118,0,0,7.9828118,305.71119,953.62154)"
         id="g3742">
        <path
           id="path3744"
           style="fill:#1725aa;fill-opacity:1;fill-rule:nonzero;stroke:none"
           d="m 0,0 5.597,0 10.565,-28.145 -6.307,0 -2.247,6.502 -9.855,0 -2.247,-6.502 -6.071,0 L 0,0 z m 6.07,-16.794 -3.429,10.093 -3.39,-10.093 6.819,0 z"
           inkscape:connector-curvature="0" />
      </g>
      <g
         transform="matrix(7.9828118,0,0,7.9828118,451.98824,953.62154)"
         id="g3746">
        <path
           id="path3748"
           style="fill:#1725aa;fill-opacity:1;fill-rule:nonzero;stroke:none"
           d="m 0,0 5.282,0 11.59,-18.45 0,18.45 5.715,0 0,-28.145 -5.242,0 -11.628,18.29 0,-18.29 -5.717,0 L 0,0 z"
           inkscape:connector-curvature="0" />
      </g>
      <g
         transform="matrix(7.9828118,0,0,7.9828118,659.70499,953.62154)"
         id="g3750">
        <path
           id="path3752"
           style="fill:#1725aa;fill-opacity:1;fill-rule:nonzero;stroke:none"
           d="m 0,0 5.913,0 0,-11.275 L 16.301,0 l 6.438,0 -9.376,-10.563 10.397,-17.582 -6.545,0 -7.951,13.755 -3.351,-3.427 0,-10.328 -5.913,0 L 0,0 z"
           inkscape:connector-curvature="0" />
      </g>
    </g>
  </g>
</svg>
