<?xml version="1.0" encoding="utf-8"?>
<!-- Generator: Adobe Illustrator 22.0.1, SVG Export Plug-In . SVG Version: 6.00 Build 0)  -->
<svg version="1.1" id="Layer_1" xmlns="http://www.w3.org/2000/svg" xmlns:xlink="http://www.w3.org/1999/xlink" x="0px" y="0px"
	 viewBox="0 0 1000 1000" style="enable-background:new 0 0 1000 1000;" xml:space="preserve">
<style type="text/css">
	.st0{fill:#FFD430;}
	.st1{fill:#EC1C24;}
	.st2{fill-rule:evenodd;clip-rule:evenodd;fill:#EC1C24;}
	.st3{fill:#231F20;}
</style>
<g>
	<path class="st0" d="M100.2,481.4c0.3-0.3,0.5-0.6,0.9-0.8c1.9-1.4,4.4-1.1,6,0.6c22.8,24.4,51.5,38.9,82.6,38.9
		c25,0,48.4-9.4,68.5-25.8c-7,18-16.3,33.3-27.3,45c-9.3,2.5-18.9,3.9-28.8,3.9C159.6,543.3,122.2,518.7,100.2,481.4"/>
</g>
<g>
	<path class="st1" d="M272.4,414.6v-1.3v-0.1c0,0,0,0,0,0.1c0,0,0,0,0-0.1c0-2.1-0.8-4.1-2-5.6c0,0,0,0,0-0.1
		c-0.3-0.4-0.6-0.7-0.9-1c-0.1-0.1-0.2-0.1-0.3-0.2c-0.3-0.2-0.6-0.4-0.8-0.6c-0.2-0.1-0.5-0.2-0.7-0.3c-0.2-0.1-0.4-0.2-0.6-0.3
		c-0.5-0.2-0.9-0.3-1.4-0.4c-0.4-0.1-0.9-0.1-1.3-0.1c-0.2,0-0.3,0-0.5,0c-0.2,0-0.3,0-0.5,0v0c-3,0.5-5.5,2.9-6.4,6.2
		c-12.2,47-40.3,80.8-65.9,95c27-3.6,50.7-21.3,66.6-47.4c-7.3,26.8-21,49.6-38.7,65.4c-9.7,3.5-19.9,5.5-30.5,5.5
		c-33.8,0-64-19.3-84.2-49.7c-1.1-0.1-2.2,0.1-3.1,0.8c-0.3,0.2-0.6,0.5-0.9,0.8c19.6,33.2,51.4,56.3,88,61
		c-8.4,3-17.3,4.6-26.5,4.6c-11,0-21.7-2.3-31.7-6.6c1.1,1.2,2.3,2.3,3.5,3.4c0,0,0,0,0,0c0.3,0.2,0.5,0.5,0.8,0.7
		c0.6,0.5,1.1,1,1.6,1.5c0.3,0.2,0.6,0.5,0.9,0.7c0.6,0.5,1.3,1.1,1.9,1.6c0.1,0.1,0.1,0.1,0.2,0.2c2.4,1.9,4.9,3.7,7.4,5.3
		c0.2,0.1,0.4,0.3,0.7,0.4c0.6,0.4,1.3,0.7,1.9,1.1c0.3,0.2,0.7,0.4,1.1,0.6c0.6,0.3,1.2,0.6,1.8,0.9c0.4,0.2,0.8,0.4,1.2,0.6
		c0.6,0.3,1.1,0.5,1.7,0.8c0.4,0.2,0.9,0.4,1.3,0.6c0.6,0.2,1.1,0.5,1.7,0.7c0.5,0.2,1,0.4,1.4,0.6c0.5,0.2,1.1,0.4,1.6,0.6
		c0.5,0.2,1,0.3,1.5,0.5c0.5,0.2,1,0.3,1.6,0.5c0.5,0.1,1.1,0.3,1.6,0.4c0.5,0.1,1,0.3,1.5,0.4c0.6,0.1,1.2,0.2,1.8,0.4
		c0.5,0.1,1,0.2,1.4,0.3c0.6,0.1,1.3,0.2,1.9,0.3c0.4,0.1,0.9,0.1,1.3,0.2c0.7,0.1,1.4,0.1,2.1,0.2c0.4,0,0.8,0.1,1.1,0.1
		c1.1,0.1,2.2,0.1,3.3,0.1c18.8,0,36.3-9.1,50.9-24.7h0c0,0,0.1-0.1,0.1-0.1c1-1.1,2-2.3,3.1-3.5c0.2-0.2,0.4-0.4,0.6-0.6
		c1-1.2,1.9-2.3,2.9-3.6c0.2-0.3,0.4-0.5,0.6-0.8c0.9-1.2,1.8-2.4,2.7-3.7c0.2-0.3,0.4-0.6,0.6-0.9c0.9-1.2,1.7-2.5,2.5-3.8
		c0.2-0.3,0.4-0.7,0.7-1c0.8-1.3,1.6-2.6,2.4-3.9c0.2-0.4,0.4-0.8,0.7-1.1c0.8-1.3,1.5-2.7,2.2-4c0.2-0.4,0.4-0.8,0.7-1.3
		c0.7-1.4,1.4-2.8,2.1-4.2c0.2-0.4,0.4-0.9,0.6-1.3c0.7-1.4,1.3-2.9,2-4.3c0.1-0.3,0.3-0.6,0.4-0.9c0,0,0,0,0,0
		c9.2-21.3,15.1-46.7,16.4-74.1c0,0,0-0.1,0-0.1c0-0.9,0.1-1.8,0.1-2.7c0-0.6,0-1.2,0.1-1.9C272.3,419.2,272.4,416.9,272.4,414.6"/>
</g>
<g>
	<path class="st1" d="M130,389.1c0,0,102.9,6.2,59.4,115.1C189.4,504.3,350.1,350.9,130,389.1"/>
</g>
<g>
	<path class="st2" d="M319.4,461.7h25.6c4.9,0,10.6,1.8,10.6,9.2c0,6.9-5.2,9.4-9.6,9.4h-26.6V461.7z M299.3,521.5h20.1v-27.1h25
		c6.2,0,10.7,2.6,10.7,12.9c0,7.8,0.1,10.7,2,14.2h21.9c-3.5-3.7-3.8-12.4-3.8-16.1c0-7.3-1.3-18.4-10.1-19.8v-0.2
		c8.4-3,12-8.8,12-17.8c0-7.6-3.4-20.1-23.9-20.1h-53.7V521.5z"/>
</g>
<g>
	<path class="st2" d="M432.4,492.9h-23.2l11.6-29.3L432.4,492.9z M443.7,521.5h21.7l-32.5-73.9h-24.2l-32.5,73.9h21.6l6-15.2h34
		L443.7,521.5z"/>
</g>
<g>
	<polygon class="st1" points="488.2,479.4 488.2,447.6 468.1,447.6 468.1,521.5 488.2,521.5 488.2,499.5 499.9,489.5 525.1,521.5 
		552.2,521.5 515.7,477.3 549.6,447.6 522.6,447.6 	"/>
</g>
<g>
	<path class="st2" d="M582.1,489.8h27.5c7,0,10.7,3.1,10.7,8.9c0,4.6-2.4,8.7-8.6,8.7h-29.6V489.8z M562,521.5h52.7
		c22.3,0,26.9-12.5,26.9-22.4c0-8-4.5-16.5-13.1-17.9V481c7-2.2,9.8-9.1,9.8-14.8c0-13.7-10-18.6-20.8-18.6H562V521.5z M582.1,461
		h25.1c8.3,0,10.4,3.3,10.4,8c0,5.5-2.9,8-7.5,8h-28V461z"/>
</g>
<g>
	<path class="st2" d="M692.3,492.9h-23.2l11.6-29.3L692.3,492.9z M703.7,521.5h21.6l-32.5-73.9h-24.2l-32.5,73.9h21.6l6-15.2h34
		L703.7,521.5z"/>
</g>
<g>
	<polygon class="st1" points="790.4,499.1 790.2,499.1 751.4,447.6 728.1,447.6 728.1,521.5 747.6,521.5 747.6,470 747.7,470 
		788,521.5 809.9,521.5 809.9,447.6 790.4,447.6 	"/>
</g>
<g>
	<polygon class="st1" points="836.2,479.4 836.2,447.6 816.1,447.6 816.1,521.5 836.2,521.5 836.2,499.5 847.9,489.5 873.1,521.5 
		900.2,521.5 863.7,477.3 897.6,447.6 870.6,447.6 	"/>
</g>
<g>
	<path class="st3" d="M458.9,591.7c-0.1,0.2-0.2,0.3-0.3,0.3c-0.2-0.1-0.3-0.2-0.4-0.2c-0.1,0.1-0.2,0.2-0.4,0.3
		c-1-0.2-1.8-0.6-2.2-1l-0.2-0.8c0-0.2,0.1-0.5,0.1-0.9c0.5-0.2,0.8-0.6,0.9-1l1.3-0.4c0.1,0.2,0.3,0.4,0.8,0.7l0.2,0.5
		c0.1,0,0.3,0.1,0.4,0.1l3.5-1.7c0.2-0.2,0.6-0.5,1.3-0.9c0.5-0.2,0.7-0.5,0.8-0.8l3.6-2.9l1.4-1.5c0.3-0.2,0.6-0.5,1-1.1
		c0.3-0.2,0.4-0.4,0.4-0.6l0.6-1c0-0.1,0-0.2,0-0.5c0-0.3-0.1-0.6-0.3-0.7c-0.4-0.4-1.1-0.8-2.3-1.3c-0.3-0.1-0.8-0.2-1.7-0.6
		c-0.8-0.3-1.3-0.4-1.8-0.4l-3.6-1.2l-5.4-1.5c-0.3,0-0.7-0.2-1.1-0.5l-2.1-0.9l-2.1-1.6c-0.8-1.4-1.1-2.3-1.1-2.8
		c-0.2-0.3-0.2-0.5-0.2-0.6l0.2-1.7l0.5-1.6l0.6-1.1l0.4-0.6c0.2-0.1,0.3-0.2,0.4-0.3c0.1,0,0.1-0.1,0.1-0.3l4.6-4.3
		c0.2-0.1,0.4-0.3,0.5-0.6c0.1-0.1,0.6-0.4,1.3-1.2c0-0.1,0.2-0.3,0.6-0.5l0.6-0.3l1.7-1.3c0-0.1,0.1-0.2,0.2-0.3l0.9-0.3l0.9-0.6
		c0.1-0.1,0.2-0.1,0.2-0.3c0.5-0.2,1.3-0.5,2.2-1.1c2.1-0.9,4.1-1.5,5.9-2h2c0.3-0.1,0.7-0.1,1.2,0c0.6,0.1,1.1,0.1,1.4,0
		c0.8,0.1,1.6,0.8,2.4,2l-0.7,2.1h-0.4c-0.1,0.2-0.3,0.6-0.8,1l-0.2,0.1l-0.6,0.2l-0.5-0.4c-0.1,0-0.1-0.1-0.1-0.1
		c0-0.7-0.3-1.2-0.9-1.3c-0.2,0-0.4,0-0.5-0.2c-0.3-0.2-0.5-0.3-0.6-0.4c-0.5-0.2-1-0.3-1.5-0.3c-0.3,0-0.6,0-0.9,0.1
		c0,0-0.8,0.2-2.4,0.6c-0.3,0.2-0.8,0.5-1.5,0.9c-0.7,0.1-1.4,0.5-2,1.2l-1.3,0.4l-1.5,1.2l-3.6,2.5c0,0.1-0.1,0.2-0.1,0.3
		c-1.6,1.3-2.7,2.6-3.5,4l-0.6,0.5c-0.1,0.2-0.1,0.4-0.1,0.5l-0.6,0.7l-0.3,1.8l1.4,2c0.1,0.1,0.2,0.2,0.3,0.3
		c0.2,0.5,0.5,0.8,0.7,0.9l0.6,0.4l3.2,0.9c0.3,0.3,0.8,0.5,1.5,0.6l1.5,0.2l3.3,0.9l3.6,1.3l1.1,0.1l1.1,0.4l3.6,1.8
		c0.2,0,0.5,0.5,1,1.6c0,0.3,0,0.7-0.2,1.1c0,0.6-0.6,1.5-1.8,2.8c-0.2,0.5-0.5,0.8-0.9,1.1c-1.2,0.6-2.3,1.4-3.3,2.4
		c-0.6,0.3-1.6,1.1-2.8,2.3c-1.2,1-2.1,1.7-3,2.1l-2.4,1.4c-0.5,0.3-0.8,0.5-1,0.6l-1.2,0.4C459.4,591.3,459.1,591.4,458.9,591.7"/>
</g>
<g>
	<path class="st3" d="M480.5,580.1L480.5,580.1l2.8-5.8c0.1-0.1,0.4-0.6,0.9-1.6l0.4-1c0-0.1,0.1-0.2,0.1-0.4l0.1-0.2h0
		c0.6-0.8,0.8-1.5,0.7-2.1c0.1-0.1,0.1-0.3,0.2-0.4c0,0,0.1-0.1,0.1-0.2l0.2-0.7c0,0,0-0.1,0-0.2l0-0.2c0-0.3,0.1-0.4,0.2-0.4
		l1.1-0.9c0.1,0,0.4,0.1,1,0.2l0.5-0.2l0.9,0.4l0.6,1.8l0.2,0.2l-0.3,0.5l-0.4,0.4L489,571l-1.2,1.8c-0.2,0-0.3,0.1-0.4,0.2
		c-0.2,0.8-0.4,1.2-0.6,1.4l-0.7,1.1c-0.3,0.4-0.5,0.8-0.6,1.1c-1.8,3.4-2.7,5.6-2.8,6.5l-0.3,1.5l-1.1,3.3l-0.3,2.5l-0.6,0.8
		l-0.6,0.1l-1.1,0.4c-0.3-0.1-0.6-0.3-0.6-0.6l-0.6-0.5c-0.1-0.1-0.1-0.3-0.2-0.5c0.2-1,0.3-1.7,0.4-2.2l1.1-3.4
		c0-0.2,0.2-0.5,0.5-1.1c0-0.1,0.1-0.2,0.2-0.4c0,0,0-0.1,0.1-0.2l0.8-2.5C480.4,580.3,480.4,580.2,480.5,580.1 M492.7,555.4
		l-0.2,0.6l-1.8,1.5c-0.1,0.1-0.2,0.3-0.3,0.4c-0.3,0.1-0.4,0.1-0.6,0.1l-2.2-1.6l-1.1-1.6l0-1.2l1-0.6l0.3-0.5l1.2-0.2l2.3,0.8
		l1.1,2.1C492.5,555.3,492.6,555.4,492.7,555.4"/>
</g>
<g>
	<path class="st3" d="M522.4,596L522.4,596c-0.1-0.1-0.2-0.1-0.3-0.2l-1.6-0.4l-0.3-0.5l-0.3-2.1l0.4-3.9l-0.1-0.5l0.4-0.7v-0.4
		l0.2-1.1l-0.2-0.5l0.2-0.5l0-3.2l0.5-1l-0.3-3.6c0.1-0.4,0.1-0.7,0-1c-0.2-1.1-0.5-1.8-0.9-2.2l-2.8,2l0,0.2
		c-0.5,0.3-1,0.7-1.4,1.2c-0.1,0.1-0.4,0.7-1,1.6l-3.1,2.5c-0.1,0.1-0.2,0.2-0.2,0.2c-0.9,0.8-1.5,1.3-1.6,1.5
		c-1.6,1.7-2.7,3-3.3,4.1c-1,0.8-1.8,1.4-2.2,1.8l-0.5,0.2l-1.9-0.6l-0.6-1.5l1.2-2.7l0.8-4c-0.1-0.1-0.1-0.1,0-0.2l0.1-0.2
		c0-0.1,0-0.1,0-0.2c0.2-0.5,0.3-0.9,0.3-1.1c0-0.1,0.1-0.4,0.1-1c0.1-0.8,0.2-1.1,0.2-1c0.3-1,0.4-2,0.4-3
		c-0.1-0.2-0.3-0.2-0.5-0.2l-1,0.8c-0.1,0.2-0.1,0.4-0.3,0.5l-0.1,0c-0.2,0.1-0.3,0.2-0.4,0.3l-0.2,0.1c0,0-0.1,0.1-0.1,0.1
		l-3.5,3.8l-0.7,1.1c0,0.2-0.2,0.2-0.3,0.2l-0.9,0.8l-0.3,0.6l-1.2,1.2c-0.1,0.1-0.2,0.4-0.3,0.6l-2.9,3.7c-0.8,0.2-1.4,0.8-1.7,1.8
		l-0.9,0.3l-1.5-0.8c-0.2-0.4-0.3-0.7-0.5-1c0-0.7,0.2-1.2,0.8-1.5c0.1-0.2,0.2-0.5,0.3-0.8l2.6-6.1l2.1-5.6
		c0.9-2.4,1.3-4.2,1.3-5.4l0.4-0.4c0.2,0,0.4-0.1,0.7-0.1c0.6,0,1.4,0.1,2.6,0.4c0.2,0.1,0.4,0.2,0.5,0.4l-0.2,1.8
		c-0.5,0-0.7,0.3-0.8,0.8l-2,4.1c0,0.1,0,0.2-0.1,0.4l-0.1,0.2c0,0.1-0.1,0.1,0,0.2l-0.3,0.8l-0.2,0.8l-0.4,0.8l0,1.2l1.8-1.9
		l1.4-1.4c0.2-0.1,0.3-0.2,0.4-0.3l4.5-4.7c0.6-0.5,1.3-1.3,2.2-2.4c0.3-0.3,0.5-0.6,0.7-0.8c0.1-0.1,0.2-0.2,0.5-0.5l1.6-0.4
		l1.5,0.7c0,0.5,0.1,0.8,0.1,1.2c0,0.4-0.1,0.6-0.2,0.8c0.1,0.2,0.2,0.3,0.3,0.5l-1.1,5.2c-0.5,1.2-0.8,2.2-0.9,3l-0.4,3h0.6
		l4.5-4.5c0-0.1,0.2-0.2,0.2-0.2l0.1,0.1l0.5-0.5l5.5-5.6l0.1,0.1l2.2-1.9l2.1-0.4l0.5,0.4c0,0.1,0.2,0.2,0.4,0.2l0.9,1.5l0.5,5.2
		l-0.3,0.8c0.1,0,0.2,0.1,0.3,0.1l-0.8,8.8l-0.4,0.4l-0.2,7.5l-0.4,0.7l0.3,0.5l-0.2,0.4L522.4,596z"/>
</g>
<g>
	<path class="st3" d="M530.1,577.8L530.1,577.8l0.1-0.1c0.1-0.2,0.1-0.4,0.1-0.7c0.2-0.8,0.6-1.7,1.2-2.9h1.2l0.2-0.2
		c0.4,0,0.6-0.1,0.7-0.3l2.2-2.8c0.1-0.4,0.4-0.8,0.9-1.3c0.7-0.6,1.2-0.9,1.3-0.9c0.2-0.2,0.3-0.3,0.4-0.4c0.7-0.8,1.2-1.2,1.6-1.4
		l1.3-0.5c0.2,0,0.4,0,0.6,0c0.3-0.1,0.5-0.2,0.5-0.2c0.3,0,0.5,0.1,0.8,0.1h1.5c0.1,0,0.2-0.1,0.2-0.1l1.7,0.7l1.2,0.7
		c0.4,0.3,0.6,0.7,0.6,1.1l0,0.5l0.3,0.8l-0.4,2.9c0.1,0.7-0.3,2-1.3,3.9c-0.1,0-0.3,0.3-0.5,0.7l-0.8,1l-1.6,2l-3.4,3.8l-0.4,0.4
		l-1.9,2l-0.7,0.5c-1.4,1.5-2.4,2.3-3,2.5l-1.6,1.7c-0.1,0-0.3,0.2-0.6,0.4l-0.4,0.3l-0.1,0.1l-0.1,0.1h0h-0.1c0,0.1,0,0.2-0.1,0.3
		l-0.2,0c0,0.1-0.1,0.1-0.2,0.2c-0.2,0.1-0.5,0.2-0.7,0.2c-0.3,0-0.5,0-0.9-0.2c-0.1,0-0.2,0.1-0.2,0.2c0-0.3-0.1,0.3-0.4,1.7h0
		l-0.3,0.8l-0.7,3.9c0,0.2-0.1,0.3-0.2,0.5c0,0-0.1,0.1-0.1,0.1l0.1,0.4l-0.5,2.5l-0.4,3.3l-0.4,1.9c0.1,0.3,0,0.6-0.1,0.9l0.2,1.1
		c0,0.1,0,0.3,0,0.4c0,0.1-0.2,0.2-0.3,0.1l-0.6,0.9l-0.6,0.5l-2.1-0.3l-0.1-0.9v-0.8l0.5-1.6c0.2-0.6,0.3-1.1,0.3-1.5l0.3-1.5
		l0.2-0.9l0.1-0.9c0-0.1,0.1-0.3,0.1-0.8c0-0.1,0-0.1,0-0.1l1-6.8l0.6-3l0-0.6l0.3-1.4l0.4-1.3c0.2-0.3,0.4-0.9,0.5-1.6v-0.2
		c0,0,0,0,0,0l1-3.4c0.4-0.5,0.7-1.5,1.1-3.3l0.1-0.3l0.1-0.3l0.5-2L530.1,577.8z M545.6,572.8c0.2-0.5,0.3-1.3,0.3-2.6v-0.7
		l-0.1-0.5c-0.4-0.4-0.7-0.7-0.9-0.8c-0.5-0.1-0.8-0.2-1-0.2l-1.6,0.4l-1.7,1.3l-0.4,0.7c-0.2,0.1-0.3,0.3-0.5,0.5l-1.1,1.1
		l-0.4,0.6c-0.2,0.1-0.4,0.3-0.7,0.6l-1,2.1c-0.2,0.3-0.5,0.7-0.9,1l-1.9,4.4l-0.3,0.3l-1.4,4l0.2,0.5c0,0.2,0,0.2,0.1,0.3l1.1,0
		l1,0.8l1.2-1.2c0.4-0.5,1.1-1.1,2-1.8l0.3-0.3l5.1-6.1c0.3-0.5,0.6-1,1-1.4c0.1-0.1,0.1-0.3,0.1-0.4l1-2.4L545.6,572.8z"/>
</g>
<g>
	<path class="st3" d="M548.5,581l0.4-2c0-0.1,0.1-0.2,0.2-0.4c0.1-0.2,0.1-0.3,0.1-0.3l0.4-1.5c0.4-1,0.6-1.6,0.6-1.7
		c0.3-1.3,0.5-2.1,0.6-2.2c0-2.7,0.3-4.1,0.9-4.1c0.1,0,0.2,0,0.3,0l1.9-7.6c0,0,0-0.2,0.2-0.6l0.8-2.8l0.6-1.5l1-3.5
		c0.4-0.6,0.7-1.2,0.8-2c0.1-0.3,0.4-1.2,0.8-2.8c0.3-1.2,0.7-1.9,1.2-2.4c0.6-0.1,1-0.2,1.4-0.3c0.6,0.4,1.1,0.7,1.4,0.8l-1.3,3.2
		l-1.4,6.1l-0.8,2c-0.2,0.5-0.3,0.8-0.4,1c-0.4,1.3-0.6,2-0.6,2.2c-0.6,2.6-1.1,4.4-1.3,5.4l-0.3,1.3l-0.8,2.4l-0.4,1.2l-0.4,1.4
		l-0.3,0.9l-0.5,1.8l-0.4,1c-0.2,0.4-0.3,0.7-0.3,1c0,0.1,0,0.2,0.1,0.3c-0.2,0.4-0.3,0.7-0.4,1l-0.3,3.3c-0.2,0.8-0.2,1.3-0.2,1.5
		v0.5l-0.1,1.5c0,0.7,0,1.1,0.2,1.4c0.1,0.4,0.1,0.6,0.1,0.9c0,0.1,0,0.2,0,0.3c0.1,0.5,0.1,0.9,0.1,1.2c0,0.1,0,0.1,0.1,0.3
		c0,0.2,0.1,0.5-0.1,0.8c-0.2,0.6-0.6,1.1-1.1,1.2l-1.1,2.3l-0.8,0.6c0,0.1-0.2,0.1-0.5,0.1c-0.2,0-0.4,0-0.4-0.1l-0.6-0.5
		c-0.3-0.4-0.6-0.8-0.8-1.1l-0.1-1.1c0.1-0.3,0.2-0.5,0.4-0.7c0.2-0.4,0.3-0.7,0.4-1.1c0-0.4,0-0.8-0.2-1.3l0.1-0.5l0.1-0.9
		c0,0,0.1-0.2,0.3-0.7c0.2-0.4,0.2-0.8,0.2-0.9c-0.1-0.3,0-0.8,0.4-1.4c0-0.2,0-0.2-0.1-0.3l0-0.8
		C548.5,582.2,548.5,581.6,548.5,581"/>
</g>
<g>
	<path class="st3" d="M558,607.1c0.4-0.8,0.9-2.1,1.5-3.7l0.2-0.2l0.5-1.4l0.4-0.5l0.1-0.2c0-0.1,0.2-0.3,0.4-0.5
		c0.8-1.5,1.6-2.8,2.4-3.9c0.2-0.3,0.4-0.5,0.6-0.7l0.3-0.4l0.2-0.3l1.1-1.7c0.2-0.1,0.5-0.3,0.8-0.6c0.1-0.3,0.5-0.6,1.1-1.1
		c0.6-0.4,0.9-0.8,1.1-1c0.3-0.3,0.8-0.7,1.4-1.2c0.5-1.2,0.7-2.3,0.6-3.5c-0.1-0.1-0.1-0.1-0.2-0.1c-0.2,0-0.4,0.2-0.7,0.4
		l-0.8,0.3c-0.2,0.1-0.4,0.3-0.7,0.5c-1.2,1-3.2,2-6.1,3.1l-1.2,0c-0.7-0.1-1.7-0.8-2.9-2.1l-1.1-1.8c0-0.1-0.1-0.3-0.2-0.6
		l-0.1-0.1l-0.3-1.9c-0.1-0.5,0-1,0.2-1.4c0.2-0.8,0.4-2,0.4-3.5l0.4-1.6l0.4-1l1.6-4.3l0.5-1l0.2-0.8l0.1-1.2l0.8-1.7
		c0.2-0.1,0.5-0.2,0.8-0.4c0.5-0.2,0.9-0.2,1-0.2c0.2,0,0.5,0.3,0.8,0.6c0.1,0.2,0.1,0.4,0.2,0.7l-0.1,0.4l-0.9,1.1
		c-0.1,0.3-0.3,0.9-0.6,1.8l-1.9,5.7l-0.9,3.5c0,0.9,0.1,2.4,0.2,4.2c0,0.1,0.6,0.8,1.7,1.9c1,0.4,1.6,0.6,1.7,0.5
		c0.3,0,0.6-0.2,1.1-0.5l0.8-0.3c0.3-0.1,0.5-0.3,0.9-0.5c1.2-0.5,1.8-0.8,1.9-0.9c0.8-0.3,1.3-0.8,1.5-1.2l0.1-0.2
		c0.7-0.6,1.2-1.2,1.6-1.8l0.4-1c0,0,0-0.1,0.1-0.2c0.1-0.1,0.1-0.2,0.1-0.2l0.1-0.4l1.3-7.3l0.3-1.3l0.1-0.7l0.2-0.8
		c0.2-0.1,0.2-0.3,0.2-0.5c0-0.1,0-0.2,0-0.4l0.3-0.8c0.2-0.2,0.4-0.5,0.6-1l1.2-0.6l1.4,0.7l0.4,0.5l0.1,0.6c0,0.4-0.2,1.2-0.5,2.3
		c-0.3,1-0.4,1.8-0.4,2.3c-0.2,1.4-0.6,3.1-1,5.1c-0.2,0.4-0.3,0.7-0.3,1c-0.2,1.2-0.5,2.5-1,4l-0.3,1l-0.1,0.9l-0.3,0.6
		c0.1,0.1,0.1,0.3,0,0.6c-0.1,0.3,0,0.5,0.1,0.6l0.9-0.4c0.7-0.3,1.4-0.7,2.1-1.1l1.6-0.4c0.9-0.2,1.7-0.2,2.2,0l0.7,0.2
		c0.1,0,0.2,0.2,0.5,0.3c0.1,0.1,0.3,0.2,0.3,0.3c0,0.3,0,0.4-0.1,0.5c-0.4,0-1.2,0.2-2.3,0.5c-1.1,0.5-2.8,1.1-5.1,1.7
		c-0.5,0.4-1.1,0.9-1.9,1.7l-0.5,2.4c0,0.1,0,0.4-0.1,0.6c-0.1,0.3-0.2,0.5-0.2,0.7l-0.1,0.9l-0.2,1.1l-0.2,0.7l-0.8,3.5l-0.7,1.8
		l-0.2,0.8c0,0,0,0.1-0.1,0.3c-0.1,0.2-0.2,0.3-0.2,0.3l-0.5,2.5l-0.2,0.9c-0.4,0.7-0.7,1.5-0.9,2.3l-0.7,1.8l-0.3,1.2l-0.4,0.9
		l-0.4,0.7c-0.2,0.4-0.3,0.6-0.2,0.7l-0.4,0.4c0,0.2-0.3,0.6-0.7,1.4c0,0-0.1,0.2-0.3,0.5c-0.2,0.3-0.2,0.4-0.2,0.4l-0.5,1
		c0,0.1-0.1,0.4-0.4,0.8l-0.8,1.5l-0.6,0.7c-0.1,0.2-0.4,0.6-0.8,1c-0.2,0.1-0.4,0.2-0.7,0.4l-0.8,0.4l-0.9,0.2c0,0-0.2,0.1-0.7,0.1
		l-0.7-0.2l-0.4-0.3c-0.2-0.2-0.5-0.3-0.7-0.4l-0.9-1.7l-0.3-0.7l-0.1-0.7l0.1-3.6c-0.1-0.1-0.1-0.2-0.1-0.3c0-0.2,0.1-0.4,0.2-0.7
		l0.3-1.2c0.1-0.4,0.3-1.3,0.6-2.5c0.2-0.5,0.5-1.2,1-2.2C557.5,608.2,557.6,607.7,558,607.1 M559.6,609.4l-0.3,1.4
		c-0.3,0.2-0.4,0.6-0.3,1.1l-0.7,2.2c-0.1,1-0.2,1.8-0.2,2.4c0,0.1,0,0.4,0.1,0.7c0,0.3,0.1,0.6,0.1,0.7v0.8l0.1,0.3l0.3,0.4
		c0.1,0.1,0.4,0.3,0.8,0.7l1.1-0.6l0.2-0.4c0-0.1,0.2-0.3,0.4-0.7l0.3-0.3l1.3-2.3l0.5-1.4l1.2-2.2c0.3-0.8,0.6-1.5,0.9-2.3l0.4-1.7
		l1-3.2c0-0.3,0.1-0.6,0.1-0.6l0,0l0.4-1.5l0.2-0.4l0.1-0.8l0.3-0.8l0.4-1.6c0-0.1,0-0.3,0.1-0.6l0.7-2.6l0.5-1.5l0.1-1l-1.3,0.4
		l-1.2,1.4l-2.8,4.3c0,0.1-0.2,0.2-0.4,0.3l-0.2,0.6c-0.1,0.1-0.2,0.2-0.2,0.3l-0.3,0.8l-0.4,0.9c0,0.1-0.2,0.3-0.3,0.7l-0.5,0.9
		l-0.3,0.6c0,0.3-0.2,1-0.6,2.1c-0.2,0.7-0.6,1.3-0.9,1.6l-0.2,0.4L559.6,609.4z"/>
</g>
<g>
	<path class="st3" d="M611.6,584.3c-0.5,0.3-0.9,0.4-1.2,0.5c-0.8-0.2-1.3-0.7-1.4-1.3c0.2-0.2,0.2-0.4,0.3-0.4
		c0-0.2-0.1-0.6-0.3-1.2c-0.2-0.7-0.3-1.1-0.2-1.3c-0.3-1-0.4-1.8-0.5-2.4c0,0.1-0.2-0.7-0.6-2.3c0.2-0.2,0.2-0.3,0.2-0.3l-0.5-0.2
		l-1.5-4l-0.8-2.7c-0.4-0.4-0.6-1.2-0.6-2.5l-0.6-2.2c-0.2-0.4-0.3-1.3-0.3-2.8v-2.5c0.2-0.3,0.3-0.7,0.3-0.9c0,0,0-0.2,0.1-0.4
		c0.1-0.2,0.1-0.4,0.1-0.4l0.1-2.2c0.3-0.6,0.6-1.1,0.9-1.3c0.3-0.1,0.4-0.3,0.4-0.5c0.4-0.5,0.7-0.8,1-0.9l0.9-1
		c0.3,0,0.5,0,0.5-0.1l1.8-1.1c0.3-0.1,1-0.3,2.1-0.7c0.9-0.3,1.7-0.5,2.3-0.5c0.2-0.2,0.9-0.4,2-0.7c1.2-0.2,1.8-0.4,1.8-0.4
		c0.7,0,1.1-0.1,1.4-0.3c0.6,0.1,1.2,0.2,1.6,0.2c0.3,0,0.5,0,0.7-0.1h2c0.7,0,1.4,0.1,1.9,0.3c0.3,0.5,0.7,0.7,1.1,0.7l1.4,1.8
		c0,0.3,0.1,0.5,0.1,0.8c0,0.7-0.5,2.2-1.6,4.5c-0.3,0.1-0.5,0.2-0.5,0.4l-0.2,0.6c-0.3,0.2-0.5,0.3-0.5,0.4l-3.3,3.4
		c-0.1,0.3-0.4,0.6-0.8,1c-0.3,0.5-0.8,1-1.4,1.5c-1.3,1-2.1,1.8-2.6,2.4c-0.2,0.1-0.3,0.2-0.4,0.2l-0.5,0.9c-0.6,0.2-1,0.5-1.3,0.9
		c0,0.2,0.1,0.4,0,0.5c1.4,0.1,2.6,0.2,3.7,0.2c0.6,0,1.3-0.1,1.9-0.1c0.2-0.1,0.5-0.1,0.8-0.1c0.2,0,0.5,0,0.8,0.1
		c0.3,0,0.6,0,0.8,0c0.3,0,0.6,0,0.9-0.1c0.8,0.3,2,0.4,3.7,0.4c1.7,0.1,2.9,0.3,3.8,0.5c0.1,0,0.4,0.1,0.9,0.2
		c0.4,0.1,0.7,0.1,0.9,0.1c0.3,0.3,0.6,0.6,0.8,0.7c0.3,0.6,0.6,1,0.7,1.3l0.4,2l0,0.6c-0.1,1.1-0.4,2.1-1.1,3l-1.9,2.7
		c-1,0.6-1.7,1.1-2,1.6l-2.4,1.7c-0.7,0.3-1.3,0.6-1.6,0.8c-0.3,0.3-1,0.8-2,1.3c-1,0.6-1.7,1-2,1.5c-1.7,0.5-2.8,0.9-3.3,1.3
		l-1,0.4c-0.2,0.1-0.4,0.1-0.7,0.1c-0.1,0-0.1,0.1-0.2,0.1c-0.1,0-0.1,0-0.1,0l-0.5,0.3l-1.7,0.6c-0.1,0-0.2,0-0.4,0l-0.6,0.1
		c-0.7,0.6-1.6,0.9-2.6,1.1l-3,0.5c-0.1,0.1-0.2,0.2-0.3,0.3l-5,1l-0.5-0.3c-0.6-0.2-1.1-0.4-1.4-0.4l-0.3-1.9
		c0.4-0.4,0.6-0.8,0.9-1.1c0.4-0.2,0.8-0.3,1.1-0.3c0.2,0,0.4,0,0.5,0.1c0.5,0.1,0.8,0.2,1,0.3c0.2,0,0.3,0,0.3-0.1
		c1.4,0,2.2-0.1,2.6-0.2c0.7-0.3,1.3-0.6,1.7-0.7l0.7,0.2l0.6-0.5l5.6-1.5c0.5-0.3,0.8-0.5,1-0.7c1.3-0.4,2.2-0.8,2.8-1l2.7-1.2
		c1-0.5,1.8-1,2.5-1.6c1.2-0.6,2-1.1,2.3-1.4l2.4-2.2c0.3-0.1,0.4-0.2,0.5-0.2c0.1-0.2,0.1-0.3,0.1-0.5c0.6-0.6,0.9-0.9,1.1-1.1
		c0-0.3,0.2-0.7,0.5-1.2c0.2-0.4,0.3-0.8,0.3-1.2l-0.8-1c-0.5-0.5-1.5-0.7-2.8-0.7c-0.3-0.2-1.1-0.3-2.5-0.4
		c-1.5-0.1-2.4-0.2-2.6-0.3l-2.3-0.2c-1.1,0.3-2.3,0.5-3.5,0.5c-0.8,0-1.5-0.1-2.3-0.2c-0.2,0.1-0.6,0.2-1.3,0.3
		c-0.5,0-0.9,0.2-1,0.5c0.1,0.1,0.1,0.2,0.1,0.2c-0.2,0.4-0.3,1.6-0.3,3.8l0.1,0.1l0.1,0.1c-0.1,0.3-0.3,0.5-0.3,0.6
		c0,0.3,0.3,0.7,0.8,1.2l0.1,0.5c-0.2,0.2-0.3,0.3-0.4,0.3l0.4,0.9c0.1,0,0.2,0,0.3,0.1l1,2.3l0.2,1.2c-0.3,0.1-0.5,0.4-0.5,0.6
		l-0.5,0.2c-0.1,0.2-0.2,0.3-0.3,0.4l-1,0.4C611.9,584.4,611.7,584.3,611.6,584.3 M616.9,561.1c0.2-0.2,0.6-0.4,1.1-0.6
		c0.1-0.2,0.5-0.6,1.1-1.2c0.5-0.5,0.8-0.9,0.9-1.3c0,0,0.2-0.3,0.7-0.7c0.5-0.4,0.8-0.6,0.8-0.7l2.5-3.3l0.1-2
		c-0.4-0.5-1-0.8-1.7-0.9l-2.3-0.1c-4.3,0.7-7,1.3-8.1,1.8l-1.7,1.5l-1.8,0.7l-0.5,0.7c0,0.2,0,0.3-0.1,0.4c-0.6,0.8-1,1.2-1,1.3
		l0.1,0.7l-0.7,2.6l0.2,0.4l-0.2,0.8c0,0.2,0.1,0.4,0.2,0.6c0.2,0.1,0.2,0.3,0.3,0.4c-0.1,0.8-0.2,1.1-0.2,0.9l0.4,1.9
		c0,0.1,0.1,0.2,0.3,0.4v0.7c0,0.3,0.1,0.6,0.3,0.8l0.5,1.5c0.1,0.1,0.3,0.2,0.3,0.3l-0.1,0.7c0.1,0.1,0.2,0.2,0.2,0.3l0.1,0.4
		l0.3-0.3l0.9-5.3c0.1-0.1,0.2-0.2,0.2-0.3l0.6-5.2l1.2-2l1.5-0.4c1.2,0.2,1.9,0.5,2.2,0.9c0.2,0.1,0.4,0.2,0.4,0.3
		c0.3,0.2,0.5,0.4,0.5,0.5c-0.2,0.2-0.3,0.4-0.3,0.6l-1.2,3.9l1.6-0.9L616.9,561.1z"/>
</g>
<g>
	<path class="st3" d="M654.5,584.4l-0.2,0.5c-0.1,0.2-0.2,0.4-0.4,0.5l-0.6,0.5l-0.5,0.2c-0.6,0.4-1.7,1.2-3.3,2.4l-1.5,0.7
		l-2.2,0.8c-0.1,0.1-0.6,0.4-1.5,0.7c-0.2,0-0.7,0.2-1.5,0.4l-2.8,0l-2.5-1c-0.1-0.2-0.2-0.3-0.2-0.3l-0.4-0.2l-1.3-1.2
		c-0.4-0.6-0.6-1-0.6-1.2c0-0.1-0.1-0.3-0.4-0.8l-0.4-2.2l0.3-3.4l0-0.5l0.3-1l0.5-1.7l2.1-4l0.7-1.6c0.2-0.3,0.5-0.6,0.8-0.8
		l0.8-0.8c0.2-0.1,0.5-0.4,0.9-0.9c0.1-0.2,0.3-0.5,0.8-1c0.1,0,0.2-0.1,0.5-0.4c0,0,0-0.1,0.1-0.2l2.1-1.2l1.6-0.8
		c0.1,0,0.3,0,0.5-0.2c1-0.2,1.8-0.4,2.4-0.5c1.8,0,3.1,0.4,3.8,1.4c0,0.1,0.2,0.5,0.6,1.1l-0.2,1.4l-0.2,0.7l-0.8,1.1l-0.7,1.1
		l-0.8,0.8c-0.1,0.2-0.4,0.4-0.8,0.7c0,0.1-0.2,0.2-0.5,0.4l-0.7,0.6c-0.1,0.1-0.9,0.7-2.6,1.9l-0.4,0.4c-1,0.4-2.1,1.1-3.3,2.3
		c-0.8,0.5-1.3,0.9-1.6,1.3c-0.1,0-0.3,0.1-0.5,0.3l-0.8,0.1l-1.5,0.8c0,0.8,0,1.2,0,1.3c0.1,0.7,0.3,1.7,0.7,3
		c0.1,0.4,0.3,0.6,0.4,0.8c0.5,0.6,1,1.2,1.5,1.5c0.1,0,0.2,0,0.4,0.1c0.2,0,0.3,0.1,0.4,0.1l0.8,0.1c0.1-0.1,0.3-0.1,0.5-0.1
		l1.4-0.3c1.3-0.6,3.3-1.4,6-2.6l0.7-0.3c0.4-0.2,0.6-0.4,0.7-0.4l1.5-1l0.2-0.5l0.3-0.4l0.6,0.3
		C654.5,583.3,654.6,583.7,654.5,584.4 M644.7,573.7l1.4-0.8c0.8-0.6,1.2-1.2,1.4-1.6l0.9-1.2l0.4-0.2c0.1-0.4,0.2-0.7,0.2-1
		c0-0.2,0-0.4-0.1-0.5l-0.6-0.3c-0.2,0-0.4,0-0.7,0l-1.1,0.4l-1.5,0.6c-0.4,0.3-1.4,1.3-3.2,3c-0.2,0.2-0.5,0.6-0.7,1
		c-0.2,0.3-0.3,0.6-0.5,0.9l-0.6,0.7l-0.7,1.1l-0.4,0.7l-0.2,0.9c0.2,0,0.5-0.2,0.9-0.5l0.4-0.2l0,0l2.9-1.9
		C644.2,574.2,644.7,573.8,644.7,573.7"/>
</g>
<g>
	<path class="st3" d="M662,586.4c0,0,0.1-0.2,0.1-0.6c0-0.4,0.1-0.6,0.1-0.7l0.4-1.8l0.5-0.9l0.3-2.7c0-0.1,0-0.3,0-0.6l0.1-0.4
		v-0.3l0.6-4.3l0.7-3.2c-0.1-0.2-0.2-0.3-0.3-0.3c-0.7-0.3-1.7-0.2-2.7,0.5l-3.6,1c-0.1,0.2-0.2,0.3-0.3,0.4h0
		c-0.1,0.1-0.2,0.2-0.5,0.2c-0.1,0-0.2,0-0.5,0.1l-0.7,0.4c0,0-0.1,0.1-0.2,0.1l-0.3,0.2c0,0-0.2,0.1-0.4,0.3l-2.5,0.7v0.2l0.1-0.1
		l0-0.1c-0.7-0.6-1-1.1-1-1.4c-0.1-0.2-0.2-0.3-0.2-0.4l0-0.5l0.7-1.3c0.2-0.1,0.3-0.2,0.4-0.2l1.8-0.9l2.4-0.6l0.2,0l0.3-0.1
		c0.2,0,0.4-0.1,0.5-0.1l1.3-0.3c0.2-0.4,0.5-0.5,0.9-0.4l0.4,0l0.4-0.3l1.4-0.2c0.4-0.1,0.9-0.3,1.4-0.5l0.6,0h0.5l1.1-0.3l2.7-9.4
		l0.9-2.6c0.1-0.2,0.2-0.3,0.3-0.4c0.1-1.1,0.4-2.4,1-4.2l0-0.2c0.1-0.1,0.1-0.6,0.3-1.5l0.2-1.2l-0.1-0.9c0.3-0.5,0.6-0.7,0.9-0.8
		l0.5-0.4l0.7-0.1l2.3,1.5l0.1,0.3l0.4,0.4c0.1,0.9,0.1,1.3,0,1.4l-0.4,0.8l-0.8,1.6c-0.2,0.3-0.3,0.6-0.4,1l-0.3,0.8l-0.3,0.9
		c-0.2,0.5-0.3,0.8-0.3,0.9c-0.3,0.5-0.6,0.9-0.6,1.1c0,0.4-0.2,1-0.6,1.9c-0.4,0.9-0.5,1.5-0.5,1.9l-0.7,1.3l-0.6,2.2l-0.2,1.4
		c-0.1,0.2-0.2,0.5-0.3,0.9l-0.2,0.5c0,0,0,0.1,0,0.2l-0.1,0.2c-0.1,0.1,0.1,0.2,0.7,0.3h1.3c0.2,0,0.6,0,1.2,0.1h1
		c0.4,0,0.6,0,0.7,0.1l2.1,0l0.7,0c0.3,0.1,0.6,0.1,0.9,0.1l0.4,0c-0.1,0,0.1,0,0.8,0.1c0.8,0.1,1.2,0.2,1,0.3l1.2,0.1l1.1,0.3
		l0.1,0.3l-0.2,0.3l-0.6,0.5c-0.1,0.1-0.8,0.1-2.2,0.1c-0.3,0-0.4,0-0.6,0h-1c-0.1,0-0.3,0-0.7,0h-0.1l-0.2,0l-0.3,0
		c0,0.1,0,0.1,0,0.1l-0.1-0.1l-1.7,0.4l-6.3,0.8c-0.1,0.1-0.2,0.5-0.2,1c0.1,0,0.1,0.2,0,0.4l0,0.4c-0.3,0.4-0.4,0.8-0.4,1.2
		c-0.1,0.1-0.1,0.3-0.1,0.6l-0.1,0.4l0,0.5c0,0.7-0.1,0.9-0.1,0.7c0,0.3,0,0.4-0.1,0.4l-0.6,2.1l-0.2,1.8c0,0.1,0,0.2,0,0.5
		l-0.3,1.3c-0.2,1.2-0.3,1.9-0.2,2c0,0,0,0.1,0.1,0l-0.1,0l-0.2,1.7c0,0.3-0.1,0.6-0.2,1l-0.2,1.4l0.1,2.2l0.2,0.4l-0.3,0.4
		c0,0.1,0,0.2,0,0.3c0,0.1-0.1,0.2-0.3,0.4l-3,0.7c-0.1-0.1-0.3-0.3-0.4-0.4c0.1-0.1,0.1-0.2,0.1-0.3c0-0.1,0-0.2,0-0.2l-0.3-1.7
		C661.6,588.2,661.8,587.3,662,586.4"/>
</g>
<g>
	<path class="st3" d="M682.7,586.3c0.1,0,0.1-0.2,0.1-0.6c0.1-0.4,0.1-0.6,0.2-0.7l0.3-1.9l0.5-0.9l0.3-2.6c0-0.2,0-0.4,0-0.6l0-0.4
		l0-0.3l0.6-4.3l0.7-3.2c-0.1-0.2-0.2-0.3-0.3-0.3c-0.7-0.3-1.6-0.2-2.7,0.5l-3.6,1c-0.2,0.2-0.2,0.3-0.3,0.3l0,0.1
		c0,0.1-0.2,0.2-0.5,0.2c-0.1,0-0.3,0-0.5,0.1l-0.7,0.4c0,0.1-0.1,0.1-0.1,0.1l-0.4,0.2c0,0.1-0.2,0.2-0.4,0.3l-2.4,0.7v0.2l0.1-0.1
		l0-0.1c-0.7-0.6-1-1-1-1.4c0-0.2-0.1-0.3-0.2-0.4l0-0.6l0.6-1.2c0.2-0.2,0.4-0.2,0.4-0.2l1.8-0.9l2.4-0.6h0.2l0.3-0.1
		c0.2,0,0.4,0,0.5-0.1l1.2-0.3c0.3-0.3,0.6-0.5,0.9-0.3l0.4,0l0.4-0.3l1.4-0.2c0.4-0.2,0.9-0.3,1.4-0.5l0.6-0.1h0.5l1-0.3l2.8-9.5
		l0.9-2.6c0.1-0.2,0.2-0.3,0.3-0.4c0-1,0.4-2.5,1-4.2l0-0.2c0-0.1,0.1-0.6,0.3-1.5l0.2-1.2l-0.1-0.9c0.3-0.5,0.5-0.8,0.9-0.8
		l0.5-0.4l0.7-0.1l2.3,1.5l0.1,0.3l0.4,0.4c0,0.9,0,1.3-0.1,1.4l-0.4,0.8l-0.9,1.6c-0.2,0.3-0.3,0.6-0.4,1l-0.3,0.9l-0.3,0.9
		c-0.2,0.6-0.3,0.8-0.3,0.9c-0.4,0.5-0.6,0.9-0.7,1c0,0.4-0.2,1-0.6,1.9c-0.3,0.9-0.5,1.5-0.5,1.9l-0.6,1.3L691,563l-0.3,1.3
		c-0.1,0.2-0.2,0.6-0.2,0.9l-0.2,0.5c0,0.1,0,0.2,0,0.2l-0.1,0.1c-0.1,0.1,0.2,0.2,0.7,0.4l1.3,0c0.2,0,0.6,0,1.2,0.1
		c0.1,0,0.4,0,1,0c0.4,0,0.6,0,0.7,0.1l2.1,0.1l0.7,0c0.3,0.1,0.6,0.1,0.9,0.1l0.4,0c-0.1,0,0.2,0,0.8,0.1c0.9,0.1,1.2,0.2,1,0.2
		l1.2,0.2l1.1,0.2l0.1,0.4l-0.2,0.3l-0.7,0.5c-0.1,0.1-0.8,0.1-2.3,0.1c-0.2,0-0.4,0-0.6,0h-1c0,0-0.3,0-0.7-0.1l-0.1,0l-0.2,0h-0.3
		v0.1l0-0.1l-1.7,0.4l-6.3,0.8c-0.1,0.1-0.2,0.5-0.2,1c0,0.1,0,0.2,0,0.4l0,0.4c-0.3,0.4-0.4,0.8-0.4,1.2c0,0.1-0.1,0.3-0.1,0.6
		l-0.1,0.4l-0.1,0.5c0,0.7-0.1,0.9,0,0.7c0,0.3,0,0.5-0.1,0.5l-0.7,2.1l-0.1,1.8c0,0.1,0,0.3-0.1,0.6l-0.2,1.3
		c-0.2,1.2-0.3,1.8-0.2,1.9c0,0.1,0,0.1,0,0.1l0-0.1l-0.2,1.7c0,0.4-0.1,0.7-0.2,1.1l-0.3,1.4l0.1,2.1l0.2,0.4l-0.3,0.4
		c0,0.1,0,0.2,0,0.3c0,0.1-0.1,0.2-0.2,0.4l-3.1,0.8c-0.1-0.1-0.3-0.3-0.4-0.4c0.1-0.1,0.1-0.2,0.1-0.3c0-0.1,0-0.2,0-0.2l-0.3-1.7
		C682.3,588.1,682.5,587.2,682.7,586.3"/>
</g>
<g>
	<path class="st3" d="M716.6,584.1l-0.2,0.5c-0.1,0.2-0.2,0.4-0.4,0.5l-0.6,0.4l-0.5,0.3c-0.5,0.3-1.7,1.1-3.3,2.4l-1.5,0.7
		l-2.1,0.8c-0.1,0.1-0.6,0.3-1.6,0.7c-0.2,0-0.7,0.2-1.4,0.4l-2.8,0.1l-2.5-1.1c-0.1-0.1-0.2-0.2-0.3-0.3l-0.3-0.2l-1.3-1.2
		c-0.4-0.6-0.6-1-0.6-1.2c0-0.1-0.2-0.4-0.5-0.8l-0.3-2.2l0.3-3.4l0-0.5l0.3-0.9l0.6-1.7l2.1-4l0.7-1.6c0.2-0.3,0.5-0.5,0.8-0.9
		l0.8-0.8c0.2-0.1,0.5-0.4,0.9-0.9c0-0.2,0.3-0.4,0.8-0.9c0.1,0,0.3-0.2,0.5-0.5c0-0.1,0-0.1,0.1-0.2l2.1-1.2l1.5-0.7
		c0.1,0,0.3-0.1,0.6-0.2c1-0.2,1.8-0.3,2.3-0.5c1.8,0,3.1,0.4,3.9,1.4c0,0.2,0.2,0.5,0.6,1.1l-0.2,1.3l-0.2,0.7l-0.8,1.1l-0.7,1.1
		l-0.8,0.7c-0.1,0.2-0.3,0.4-0.7,0.7c-0.1,0.1-0.2,0.2-0.5,0.4l-0.7,0.5c-0.1,0-0.9,0.7-2.6,1.9l-0.4,0.4c-1,0.4-2.1,1.2-3.3,2.3
		c-0.8,0.4-1.3,0.9-1.6,1.3c-0.1,0-0.3,0.1-0.5,0.3l-0.7,0.1l-1.5,0.8c0,0.8,0,1.2,0,1.3c0,0.7,0.3,1.7,0.7,3
		c0.1,0.4,0.3,0.7,0.3,0.8c0.5,0.7,1.1,1.2,1.5,1.5c0.1,0,0.3,0,0.4,0.1c0.2,0.1,0.4,0.1,0.4,0.1l0.8,0.1c0.2,0,0.3,0,0.5,0l1.4-0.4
		c1.3-0.5,3.3-1.4,6-2.6l0.7-0.4c0.4-0.2,0.6-0.3,0.7-0.4l1.5-1l0.2-0.5l0.3-0.4l0.7,0.3C716.5,583,716.6,583.4,716.6,584.1
		 M706.7,573.4l1.5-0.8c0.8-0.7,1.2-1.2,1.4-1.6l0.9-1.1l0.4-0.2c0.2-0.4,0.2-0.7,0.2-1c0-0.2,0-0.3-0.1-0.4l-0.6-0.3
		c-0.2,0-0.4,0-0.7-0.1l-1.2,0.4l-1.4,0.6c-0.4,0.3-1.5,1.3-3.2,3c-0.2,0.2-0.4,0.5-0.7,1c-0.2,0.3-0.3,0.6-0.5,0.9l-0.6,0.7
		l-0.7,1.1l-0.4,0.7l-0.2,0.8c0.2,0,0.6-0.2,0.9-0.5l0.4-0.2v0l2.9-1.9C706.2,573.9,706.7,573.5,706.7,573.4"/>
</g>
<g>
	<path class="st3" d="M725.9,587.5l-0.4,1.2l-0.3,0.8c0,0.1,0,0.1,0,0.2l-0.1,0.1c-0.2,0.1-0.3,0.1-0.4,0.2
		c-0.1,0.3-0.1,0.6-0.1,0.7c-0.2,0.1-0.5,0.3-1.1,0.3c-0.6,0.1-1,0.1-1.3,0.1l-0.4-0.2l-0.2-0.4c-0.1-0.3-0.1-0.6-0.1-0.7
		c0-0.5,0-0.8-0.2-1l0.1-0.5c0-1.8-0.2-2.9-0.5-3.3l-0.4-4.8l-0.1-2.2l-0.5-2.3c-0.7-1.5-1.1-2.5-1.3-3l-0.3-0.5l-0.2-0.5l0-0.4
		c0-0.3,0-0.5,0-0.7c0.1-0.3,0.1-0.5,0.1-0.6c0.2-0.5,0.5-1,0.7-1.3l1.2-0.9l2.8,0.7c0,0.2,0.2,0.3,0.3,0.5c0,0.4,0,0.9,0.1,1.7
		c0.1,0.7-0.1,1.2-0.3,1.5c0,0.6,0.1,1.1,0.2,1.4l-0.1,2l0,1.5l0.9,3.7l1.3-1.5c1.1-2,1.9-3.4,2.3-4.1l2.5-4.4
		c0.2-0.2,0.3-0.3,0.4-0.4c0.5-0.9,0.9-1.4,1.1-1.6l0.8-1l0.6-0.6l0.4-0.5l1.4-1.2c0.6-0.4,0.9-0.7,1.2-0.8c1.8-0.9,3.1-1.4,4-1.8
		l0.9,0c0.2-0.1,0.3-0.1,0.4-0.2c1.8,0.2,2.9,0.5,3.1,0.8c0,0.2,0,0.3-0.1,0.4l-0.6,0.7h-0.2l-0.8,0.5c-0.1,0-0.4,0-0.9,0
		c-0.3,0-0.8,0.2-1.4,0.5c-0.6,0.4-1,0.5-1.2,0.6c-0.9,0.3-1.7,0.8-2.3,1.5c-0.1,0.1-0.2,0.1-0.3,0.1l-1.9,2.1
		c-0.5,0.6-0.8,0.9-0.8,1l-1.3,1.6c-0.1,0.2-0.3,0.3-0.3,0.5l-0.5,0.6l-0.2,0.6c-0.3,0.8-1,1.9-2,3.4c-0.9,1.5-1.6,2.7-1.9,3.5
		c0,0-0.1,0.2-0.1,0.4c-0.1,0.3-0.1,0.4-0.1,0.5l-1.4,3c0.1,0.2,0.2,0.3,0.2,0.4L725.9,587.5z"/>
</g>
</svg>
